Coordinates
version=1
nRows=43
nColumns=12
inDegrees=yes

Units are S.I. units (second, meters, Newtons, ...)
Angles are in degrees

endheader
time	SC_y	SC_z	SC_x	AC_y	AC_z	AC_x	GH_y	GH_z	GH_yy	EL_x	PS_y
       0.0              -21.99          39.23          67.91          43.78          5.797         -19.06         -43.91          88.38          164.0          74.12          6.601
   0.02469              -21.99          39.23          67.91          43.78          5.795         -19.05         -43.87          88.38          163.9          74.11          6.617
   0.04939               -22.0          39.23          67.91          43.78          5.792         -19.05         -43.84          88.37          163.9           74.1          6.633
   0.07408               -22.0          39.22          67.91          43.79           5.79         -19.05          -43.8          88.37          163.9           74.1          6.651
   0.09878              -22.01          39.22          67.91          43.79          5.787         -19.05         -43.76          88.36          163.8          74.09           6.67
    0.1235              -22.01          39.22          67.91          43.79          5.784         -19.05         -43.72          88.36          163.8          74.08           6.69
    0.1482              -22.02          39.22          67.91          43.79          5.781         -19.05         -43.68          88.35          163.8          74.07          6.712
    0.1729              -22.03          39.22          67.91           43.8          5.778         -19.04         -43.63          88.35          163.7          74.06          6.735
    0.1976              -22.04          39.21          67.92           43.8          5.774         -19.04         -43.58          88.34          163.7          74.05          6.759
    0.2222              -22.04          39.21          67.92           43.8          5.771         -19.04         -43.52          88.33          163.6          74.04          6.786
    0.2469              -22.05          39.21          67.92           43.8          5.767         -19.04         -43.47          88.33          163.6          74.02          6.814
    0.2716              -22.06           39.2          67.92          43.81          5.762         -19.04          -43.4          88.32          163.5          74.01          6.844
    0.2963              -22.07           39.2          67.92          43.81          5.758         -19.03         -43.34          88.31          163.4           74.0          6.877
     0.321              -22.08           39.2          67.92          43.81          5.752         -19.03         -43.26           88.3          163.4          73.98          6.913
    0.3457              -22.09          39.19          67.93          43.82          5.747         -19.03         -43.18          88.29          163.3          73.96          6.951
    0.3704              -22.11          39.19          67.93          43.82          5.741         -19.02          -43.1          88.28          163.2          73.95          6.993
    0.3951              -22.12          39.18          67.93          43.83          5.735         -19.02          -43.0          88.27          163.1          73.93          7.038
    0.4198              -22.14          39.18          67.93          43.83          5.728         -19.02          -42.9          88.26          163.0           73.9          7.088
    0.4445              -22.15          39.17          67.94          43.84           5.72         -19.01         -42.79          88.25          162.9          73.88          7.142
    0.4692              -22.17          39.17          67.94          43.84          5.711         -19.01         -42.67          88.23          162.8          73.85          7.201
    0.4939              -22.19          39.16          67.94          43.85          5.702          -19.0         -42.53          88.22          162.7          73.83          7.266
    0.5186              -22.21          39.15          67.95          43.86          5.692          -19.0         -42.39           88.2          162.5          73.79          7.337
    0.5433              -22.24          39.15          67.95          43.87          5.681         -18.99         -42.22          88.18          162.4          73.76          7.416
     0.568              -22.27          39.14          67.95          43.87          5.668         -18.98         -42.04          88.16          162.2          73.72          7.503
    0.5927               -22.3          39.13          67.96          43.88          5.655         -18.97         -41.84          88.13          162.0          73.68            7.6
    0.6173              -22.33          39.12          67.96           43.9          5.639         -18.96         -41.62          88.11          161.8          73.63          7.708
     0.642              -22.37           39.1          67.97          43.91          5.622         -18.95         -41.37          88.08          161.5          73.58           7.83
    0.6667              -22.41          39.09          67.98          43.92          5.602         -18.94         -41.09          88.04          161.3          73.52          7.966
    0.6914              -22.46          39.07          67.99          43.94           5.58         -18.93         -40.77           88.0          161.0          73.45           8.12
    0.7161              -22.51          39.05           68.0          43.96          5.555         -18.92         -40.41          87.96          160.6          73.37          8.295
    0.7408              -22.57          39.03          68.01          43.98          5.527          -18.9         -39.99          87.91          160.2          73.29          8.495
    0.7655              -22.64          39.01          68.02           44.0          5.494         -18.88         -39.52          87.86          159.8          73.18          8.725
    0.7902              -22.73          38.98          68.03          44.03          5.456         -18.86         -38.97          87.79          159.3          73.07           8.99
    0.8149              -22.82          38.95          68.05          44.06          5.413         -18.83         -38.34          87.71          158.7          72.93          9.297
    0.8396              -22.93          38.91          68.07           44.1          5.361          -18.8         -37.59          87.63          157.9          72.77          9.657
    0.8643              -23.06          38.87          68.09          44.14          5.301         -18.77         -36.72          87.52          157.1          72.59          10.08
     0.889              -23.22          38.82          68.11          44.19          5.229         -18.73         -35.68           87.4          156.1          72.37          10.59
    0.9137              -23.41          38.76          68.15          44.25          5.143         -18.68         -34.43          87.25          154.9           72.1          11.19
    0.9384              -23.63          38.68          68.18          44.33          5.038         -18.62         -32.92          87.07          153.5          71.78          11.92
    0.9631              -23.91          38.59          68.23          44.42          4.911         -18.54         -31.07          86.85          151.7          71.39          12.82
    0.9878              -24.25          38.48          68.29          44.54          4.754         -18.45          -28.8          86.57          149.5           70.9          13.92
     1.012              -24.68          38.33          68.36          44.68          4.558         -18.34         -25.96          86.24          146.8           70.3          15.29
     1.037              -25.22          38.16          68.45          44.86          4.311          -18.2         -22.38          85.81          143.4          69.54          17.03
